# xmcd CD database file
#
# Track frame offsets:
#	150
#	16297
#	41811
#	61759
#	78705
#	99068
#	123640
#	149832
#	173866
#	189514
#	215222
#	234149
#	246141
#	266412
#	291560
#	320202
#
# Disc length: 4410 seconds
#
# Revision: 0
# Processed by: cddbd v1.4PL0 Copyright (c) Steve Scherf et al.
# Submitted via: CDex 1.50beta10
#
DISCID=f4113810
DTITLE=Varios - Salsa 4
DYEAR=2003
DGENRE=Salsa
TTITLE0=Mambo Batiri
TTITLE1=Meneate
TTITLE2=Yenguele Maria
TTITLE3=Pa Bravo Yo
TTITLE4=Sera
TTITLE5=Estar Enamorado
TTITLE6=Magdalena
TTITLE7=Chiribito
TTITLE8=Inferidius
TTITLE9=Rumbon Melon
TTITLE10=Tu Loco Pero Yo Tranquilo
TTITLE11=Vitamina
TTITLE12=Siguelo
TTITLE13=Estamos En Salsa
TTITLE14=Merecumbe
TTITLE15=Chin Chon Chau
EXTD=YEAR: 2003
EXTT0=
EXTT1=
EXTT2=
EXTT3=
EXTT4=
EXTT5=
EXTT6=
EXTT7=
EXTT8=
EXTT9=
EXTT10=
EXTT11=
EXTT12=
EXTT13=
EXTT14=
EXTT15=
PLAYORDER=
